{"title":"SULTAN (2016) ~2cd x264 DesiSCR AAC -DDR","uid":15238926,"size":1480764456,"categoryP":"video","categoryS":"movies","magnet":"?xt=urn:btih:22baac66349e165856e156d6de5a4736f621bb1d&amp;dn=SULTAN+%282016%29+%7E2cd+x264+DesiSCR+AAC+-DDR&amp;tr=udp%3A%2F%2Ftracker.leechers-paradise.org%3A6969&amp;tr=udp%3A%2F%2Fzer0day.ch%3A1337&amp;tr=udp%3A%2F%2Fopen.demonii.com%3A1337&amp;tr=udp%3A%2F%2Ftracker.coppersurfer.tk%3A6969&amp;tr=udp%3A%2F%2Fexodus.desync.com%3A6969","seeders":5,"leechers":5,"uploader":"SaM","files":3,"time":1467917511,"description":"- BollywooD MoviE -\r\n**- SULTAN -**\r\n- 2016 -\r\n** 1/3 DesiSCR Rip / x264 / AAC 2.0 **\r\n\r\n ~* SCREENSHOTS *~\r\n \nhttp://extraimago.com/image/aoc6 \nhttp://extraimago.com/image/aocx \nhttp://extraimago.com/image/aoct \nhttp://extraimago.com/image/aoco \nhttp://extraimago.com/image/aock \nhttp://extraimago.com/image/aocH \nhttp://extraimago.com/image/aocF \nhttp://extraimago.com/image/aocD \nhttp://extraimago.com/image/aoc5 \nhttp://extraimago.com/image/aocg \nhttp://extraimago.com/image/aocX \nhttp://extraimago.com/image/aocP \nhttp://extraimago.com/image/aocG \nhttp://extraimago.com/image/aocr \nhttp://extraimago.com/image/aocp\r\n\r\n\r\n[ Specs ]\r\nGeneral\r\nSource = DesiSCR MP4 @ DUS\r\n\r\nFormat : Matroska\r\nFile size : 1.37 GiB\r\nDuration : 2h 48mn\r\nOverall bit rate : 1 160 Kbps\r\nEncoded date : UTC 2016-07-07 02:00:01\r\n\r\nVideo\r\nFormat : AVC\r\nFormat/Info : Advanced Video Codec\r\nFormat profile :   \r\nFormat settings, CABAC : Yes\r\nFormat settings, ReFrames : 5 frames\r\nCodec ID : V_MPEG4/ISO/AVC\r\nDuration : 2h 48mn\r\nBit rate : 1 030 Kbps\r\nWidth : 720 pixels\r\nHeight : 304 pixels\r\nDisplay aspect ratio : 2.35:1\r\nFrame rate mode : Constant\r\nFrame rate : 25.000 fps\r\nColor space : YUV\r\nChroma subsampling : 4:2:0\r\nBit depth : 8 bits\r\nScan type : Progressive\r\nBits/(Pixel*Frame) : 0.188\r\nStream size : 1.22 GiB (89%)\r\nDefault : Yes\r\nForced : No\r\n\r\nAudio\r\nFormat : AAC\r\nFormat/Info : Advanced Audio Codec\r\nFormat profile : LC\r\nCodec ID : A_AAC\r\nDuration : 2h 48mn\r\nBit rate : 128 Kbps\r\nChannel(s) : 2 channels\r\nChannel positions : Front: L R\r\nSampling rate : 44.1 KHz\r\nFrame rate : 43.066 fps (1024 spf)\r\nCompression mode : Lossy\r\nDelay relative to video : 10ms\r\nStream size : 155 MiB (11%)\r\nLanguage : Hindi\r\nDefault : Yes\r\nForced : No\r\n\r\nChapters: None on source\r\nSAMPLE : Included\r\n\r\nA DDR Exclusive Release...!","torrent":{"xt":"urn:btih:22baac66349e165856e156d6de5a4736f621bb1d","amp;dn":"SULTAN+%282016%29+%7E2cd+x264+DesiSCR+AAC+-DDR","amp;tr":["udp%3A%2F%2Ftracker.leechers-paradise.org%3A6969","udp%3A%2F%2Fzer0day.ch%3A1337","udp%3A%2F%2Fopen.demonii.com%3A1337","udp%3A%2F%2Ftracker.coppersurfer.tk%3A6969","udp%3A%2F%2Fexodus.desync.com%3A6969"],"infoHash":"22baac66349e165856e156d6de5a4736f621bb1d","infoHashBuffer":{"type":"Buffer","data":[34,186,172,102,52,158,22,88,86,225,86,214,222,90,71,54,246,33,187,29]},"announce":[],"urlList":[]}}